<?xml version="1.0" encoding="UTF-8" standalone="no"?>
<svg xmlns="http://www.w3.org/2000/svg" xmlns:xlink="http://www.w3.org/1999/xlink" width="48" height="48" version="1.0">
  <defs>
    <linearGradient id="b">
      <stop offset="0" stop-color="#f5a108" stop-opacity="0"/>
      <stop offset="1" stop-color="#fefdc3" stop-opacity=".74"/>
    </linearGradient>
    <linearGradient id="c">
      <stop offset="0"/>
      <stop offset="1" stop-opacity="0"/>
    </linearGradient>
    <linearGradient xlink:href="#a" id="e" x1="62.904049" x2="43.183071" y1="-11.34953" y2="-43.949013" gradientTransform="matrix(1 0 0 1.05444 -33.28072 38.998643)" gradientUnits="userSpaceOnUse"/>
    <linearGradient id="a">
      <stop offset="0" stop-color="#fff"/>
      <stop offset="1" stop-color="#fff" stop-opacity="0"/>
    </linearGradient>
    <linearGradient xlink:href="#b" id="f" x1="12.608996" x2="9.5879765" y1="34.377342" y2="9.5726242" gradientTransform="matrix(2.88667 0 0 1.54924 -14.691185 -14.15386)" gradientUnits="userSpaceOnUse"/>
    <radialGradient xlink:href="#c" id="d" cx="17.3125" cy="25.53125" r="9.6875" fx="17.3125" fy="25.53125" gradientTransform="matrix(1 0 0 .35161 0 16.55413)" gradientUnits="userSpaceOnUse"/>
  </defs>
  <path fill="url(#d)" d="M27 25.53125a9.6875 3.40625 0 1 1-19.375 0 9.6875 3.40625 0 1 1 19.375 0z" opacity=".4" transform="matrix(2.18291 0 0 2.19003 -13.791664 -18.890641)"/>
  <path d="M24.37553 3.4324439c-3.75565 0-7.132063 1.257436-8.40625 4.25-1.036769 2.4349621-.491946 5.7401251 1.75 9.8750001-1.023626-.491242-2.060384-1.011657-3.34375-1.34375-1.71738-.444402-3.592494-.627768-5.3125005.03125-1.720006.659018-3.180715 2.231598-3.875 4.75-1.154028 4.186039.937292 7.727734 4.4375 9.3125 2.7789505 1.258207 6.4031155 1.351222 10.1562505.125-.834377.840958-1.752127 1.613769-2.75 2.40625-.690886.545991-1.376664 1.050312-1.8125 1.875-.232772.453718-.116267.929684.03125 1.25.01136.04203-.02001.04726 0 .09375.01445.03358.01144.02686.03125.0625.0091.01645-.0104.0144 0 .03125l.03125-.03125c.246905.3888.649859.723444 1.21875.71875h15.6875c.568905.0047.971839-.32992 1.21875-.71875l.03125.03125c.0104-.01686-.0091-.0148 0-.03125.01982-.03565.01679-.02892.03125-.0625.02002-.0465-.01136-.05171 0-.09375.147521-.320325.263999-.796298.03125-1.25-.435836-.824692-1.121614-1.329011-1.8125-1.875a.95009499.95009499 0 0 0-.03125 0c-.856934-.643434-1.507416-1.435182-2.25-2.15625 3.609301 1.087065 7.070492.931934 9.75-.28125 3.500208-1.584767 5.591528-5.12646 4.4375-9.3125-.69448-2.519105-2.151104-4.082001-3.875-4.75-1.723896-.667999-3.586302-.525293-5.3125-.09375-1.308551.327133-2.398847.853691-3.4375 1.34375 2.257226-4.150318 2.789466-7.464953 1.75-9.9062501-1.274187-2.992564-4.61935-4.25-8.375-4.25z" color="#000" font-family="Bitstream Vera Sans" overflow="visible" style="text-indent:0;text-align:start;line-height:normal;text-transform:none;block-progression:tb;marker:none;-inkscape-font-specification:Bitstream Vera Sans"/>
  <path fill="#1b1e20" d="M24.37553 5.3386939c3.342793 0 5.749804 1.038258 6.625 3.09375.875196 2.0554921.345992 5.6246421-3.28125 10.9687501a.95009499.95009499 0 0 0 1.3125 1.34375s2.832542-1.903459 5.84375-2.65625c1.505604-.376396 3.010612-.424787 4.1875.03125s2.14141 1.374548 2.71875 3.46875c.939825 3.409053-.529711 5.805507-3.375 7.09375-2.845289 1.288243-7.13432 1.243229-11.4375-1a.95009499.95009499 0 0 0-1.3125 1.15625c.03697.09851.06314.236436.125.46875.05738.215494.165512.532552.375.8125.01358.01856.0176.04403.03125.0625 1.236057 1.671881 2.781834 2.982213 4.34375 4.15625.0064.0048.02489-.0048.03125 0 .339064.26843.409848.42459.625.625h-13.625c.220662-.205543.305402-.347733.65625-.625 1.487976-1.181705 3.164447-2.425527 4.375-4.25a.95009499.95009499 0 0 0 .09375-.125c.104739-.240121.459409-.704651.53125-1.46875a.95009499.95009499 0 0 0-1.375-.90625c-4.30318 2.243229-8.592211 2.288243-11.4375 1-2.8452895-1.288243-4.3148255-3.684698-3.3750005-7.09375.577534-2.094906 1.520206-3.021503 2.6875-3.46875 1.1672945-.447247 2.6598065-.355981 4.1562505.03125 2.992889.774462 5.8125 2.6875 5.8125 2.6875a.95017474.95017474 0 1 0 1.34375-1.34375c-3.627242-5.344108-4.187696-8.913258-3.3125-10.9687501.875196-2.055492 3.313457-3.09375 6.65625-3.09375z" color="#000" font-family="Bitstream Vera Sans" overflow="visible" style="text-indent:0;text-align:start;line-height:normal;text-transform:none;block-progression:tb;marker:none;-inkscape-font-specification:Bitstream Vera Sans"/>
  <path fill="url(#e)" d="M24.37553 4.4011939c-7.098443 0-11.548729 4.624932-4.125 15.5625001 0 0-11.6126115-7.945363-14.1562505 1.28125-2.093853 7.595093 7.1366535 11.905667 16.1875005 7.1875-.04156.44203-.299786.768891-.46875 1.15625-1.091046 1.644359-2.682664 2.804905-4.1875 4-.696291.550262-1.266467 1.002347-1.5625 1.5625-.07706.150205-.0471.320763.03125.46875.005.0095-.0057.02201 0 .03125.09385.15314.258446.251477.4375.25h15.6875c.179054.0015.343655-.09686.4375-.25.0057-.0092-.005-.02175 0-.03125.07835-.147987.108305-.318545.03125-.46875-.296032-.560154-.866209-1.012239-1.5625-1.5625-1.552656-1.165821-3.022836-2.408693-4.1875-4-.277287-.339321-.320544-.761345-.46875-1.15625 9.050847 4.718166 18.250103.407593 16.15625-7.1875-2.543639-9.226613-14.125-1.28125-14.125-1.28125 7.423729-10.9375681 2.973443-15.5625001-4.125-15.5625001zm0 .9375c3.342793 0 5.749804 1.038258 6.625 3.09375.875196 2.0554921.345992 5.6246421-3.28125 10.9687501a.95009499.95009499 0 0 0 1.3125 1.34375s2.832542-1.903459 5.84375-2.65625c1.505604-.376396 3.010612-.424787 4.1875.03125s2.14141 1.374548 2.71875 3.46875c.939825 3.409053-.529711 5.805507-3.375 7.09375-2.845289 1.288243-7.13432 1.243229-11.4375-1a.95009499.95009499 0 0 0-1.3125 1.15625c.03697.09851.06314.236436.125.46875.05738.215494.165512.532552.375.8125.01358.01856.0176.04403.03125.0625 1.236057 1.671881 2.781834 2.982213 4.34375 4.15625.0064.0048.02489-.0048.03125 0 .339064.26843.409848.42459.625.625h-13.625c.220662-.205543.305402-.347733.65625-.625 1.487976-1.181705 3.164447-2.425527 4.375-4.25a.95009499.95009499 0 0 0 .09375-.125c.104739-.240121.459409-.704651.53125-1.46875a.95009499.95009499 0 0 0-1.375-.90625c-4.30318 2.243229-8.592211 2.288243-11.4375 1-2.6543325-1.201784-4.0793965-3.384439-3.5000005-6.4375.04168-.219643.06193-.427456.125-.65625.577534-2.094906 1.520206-3.021503 2.6875-3.46875 1.1672945-.447247 2.6598065-.355981 4.1562505.03125 2.992889.774462 5.8125 2.6875 5.8125 2.6875a.95017474.95017474 0 0 0 .78125.28125.95017474.95017474 0 0 0 .4375-.1875 1.0001 1.0545442 0 0 0 .125-.125 1.0001 1.0545442 0 0 0 .1875-.28125 1.0001 1.0545442 0 0 0 .03125-.03125.95017474.95017474 0 0 0 0-.0625 1.0001 1.0545442 0 0 0 .03125-.03125.95017474.95017474 0 0 0 0-.0625 1.0001 1.0545442 0 0 0 .03125-.21875 1.0001 1.0545442 0 0 0-.0625-.28125.95017474.95017474 0 0 0 0-.03125 1.0001 1.0545442 0 0 0-.03125-.0625.95017474.95017474 0 0 0 0-.03125 1.0001 1.0545442 0 0 0-.03125-.03125.95017474.95017474 0 0 0-.15625-.1875c-3.627242-5.344108-4.187696-8.913258-3.3125-10.9687501.875196-2.055492 3.313457-3.09375 6.65625-3.09375z" color="#000" font-family="Bitstream Vera Sans" opacity=".4" overflow="visible" style="text-indent:0;text-align:start;line-height:normal;text-transform:none;block-progression:tb;marker:none;-inkscape-font-specification:Bitstream Vera Sans"/>
  <path fill="url(#f)" d="M24.375 4.40625c-6.571969 0-10.851915 3.9819863-5.5625 13.25.082128-.076219.168321-.141738.25-.21875 5.476447-5.16354 9.676813-6.504624 13.25-6.78125.115635-4.3198635-3.349501-6.25-7.9375-6.25zm-12.6875 12.375c-2.4138827-.045091-4.6398854 1.00877-5.59375 4.46875-.462415 1.677331-.3620505 3.173676.15625 4.46875 3.620604-1.38642 7.772075-3.854888 11.5625-7.15625-1.673658-.836141-3.968598-1.740969-6.125-1.78125z" opacity=".35"/>
</svg>