<?xml version="1.0" encoding="UTF-8" standalone="no"?>
<svg xmlns="http://www.w3.org/2000/svg" xmlns:xlink="http://www.w3.org/1999/xlink" width="48" height="48" version="1.0">
  <defs>
    <linearGradient id="b">
      <stop offset="0" stop-color="#fff" stop-opacity=".40000001"/>
      <stop offset="1" stop-color="#fff" stop-opacity="0"/>
    </linearGradient>
    <linearGradient id="c">
      <stop offset="0"/>
      <stop offset="1" stop-opacity="0"/>
    </linearGradient>
    <linearGradient id="a">
      <stop offset="0" stop-color="#f5a108" stop-opacity="0"/>
      <stop offset="1" stop-color="#fefdc3" stop-opacity=".74251497"/>
    </linearGradient>
    <linearGradient xlink:href="#a" id="f" x1="11.355036" x2="6.3578372" y1="32.756931" y2="6.1003184" gradientTransform="matrix(2.0123 0 0 1.07997 .835129 -1.340661)" gradientUnits="userSpaceOnUse"/>
    <linearGradient xlink:href="#b" id="e" x1="100.98425" x2="62.392513" y1="30.283464" y2="-34.659653" gradientTransform="translate(-63.462834 8.8388348)" gradientUnits="userSpaceOnUse"/>
    <radialGradient xlink:href="#c" id="d" cx="17.3125" cy="25.53125" r="9.6875" fx="17.3125" fy="25.53125" gradientTransform="matrix(1 0 0 .35161 0 16.55413)" gradientUnits="userSpaceOnUse"/>
  </defs>
  <path fill="url(#d)" d="M27 25.53125a9.6875 3.40625 0 1 1-19.375 0 9.6875 3.40625 0 1 1 19.375 0z" color="#000" opacity=".40909089" overflow="visible" style="marker:none" transform="translate(-13.52704 -17.29028) scale(2.18291)"/>
  <path fill="#c71807" stroke="#820000" d="M25.119843 3.6892286 10.946615 21.405764 25.119843 39.1223l14.173233-17.716536L25.119843 3.6892286z"/>
  <path fill="#c71807" stroke="url(#e)" d="M25.119843 5.2712599 12.223959 21.405764l12.893757 16.11888 12.89198-16.11888L25.119843 5.2712599z"/>
  <path fill="url(#f)" fill-rule="evenodd" d="m25.125 4.46875-.40625.5-12.875 16.125-.25.3125.25.3125 2.5 3.125c3.011992-.939198 6.615018-2.93521 10.03125-6.15625 2.972741-2.802889 5.979892-3.76673 8.71875-4.21875l-7.59375-9.5-.375-.5z" opacity=".625"/>
</svg>