<?xml version="1.0" encoding="UTF-8"?>
<svg xmlns="http://www.w3.org/2000/svg" xmlns:xlink="http://www.w3.org/1999/xlink" width="48" height="48" version="1.0">
  <defs>
    <linearGradient id="a">
      <stop offset="0" stop-color="#f5a108" stop-opacity="0"/>
      <stop offset="1" stop-color="#fefdc3" stop-opacity=".74"/>
    </linearGradient>
    <linearGradient id="c">
      <stop offset="0"/>
      <stop offset="1" stop-opacity="0"/>
    </linearGradient>
    <linearGradient id="b">
      <stop offset="0" stop-color="#fff"/>
      <stop offset="1" stop-color="#fff" stop-opacity="0"/>
    </linearGradient>
    <linearGradient xlink:href="#a" id="f" x1="12.608996" x2="9.5879765" y1="34.377342" y2="9.5726242" gradientTransform="matrix(2.0123 0 0 1.07997 -1.429495 -2.7348023)" gradientUnits="userSpaceOnUse"/>
    <linearGradient xlink:href="#b" id="e" x1="37.521717" x2="18.094919" y1="36.008625" y2="-4.0458355" gradientTransform="matrix(1 0 0 1.00326 0 -.07993116)" gradientUnits="userSpaceOnUse"/>
    <radialGradient xlink:href="#c" id="d" cx="17.3125" cy="25.53125" r="9.6875" fx="17.3125" fy="25.53125" gradientTransform="matrix(1 0 0 .35161 0 16.55413)" gradientUnits="userSpaceOnUse"/>
  </defs>
  <path fill="url(#d)" d="M27 25.53125a9.6875 3.40625 0 1 1-19.375 0 9.6875 3.40625 0 1 1 19.375 0z" opacity=".4" transform="matrix(2.18291 0 0 2.19003 -13.791664 -18.890641)"/>
  <path fill="none" stroke="#000" stroke-linejoin="round" stroke-width="2" d="M24 4.53125c-.14596-2e-7-.230856.0355316-.34375.125 0 1e-7-4.131134 3.3479834-8.28125 7.59375-2.075058 2.122884-4.17749 4.471871-5.75 6.75-.5896917.854298-1.0823832 1.70844-1.5 2.53125-.2883588.517906-.4942004 1.079062-.71875 1.625-.1839844.493495-.241121.988433-.34375 1.5-.0970289.454408-.031573.918929-.03125 1.375.0261746.230776.0833614.459445.125.6875.0402527.35765.2059024.691563.3125 1.03125.3547516.869014.8786871 1.621936 1.5625 2.25 1.239319 1.138282 2.911804 1.84704 4.65625 2.21875 2.509261.534679 5.152579.269297 7.125-.78125.40882-.128251.74084-.39071 1.09375-.625-.041564.419209-.299786.726389-.46875 1.09375-1.091046 1.559464-2.682664 2.679106-4.1875 3.8125-.696291.521853-1.266467.937517-1.5625 1.46875-.077055.14245-.047101.297153.03125.4375.005032.009015-.005663.022486 0 .03125.093846.145234.258446.251401.4375.25h15.6875c.179054.001403.343655-.104765.4375-.25.005663-.008764-.005032-.022236 0-.03125.07835-.140347.108305-.29505.03125-.4375-.296032-.531234-.866209-.946898-1.5625-1.46875-1.552656-1.105632-3.022836-2.303349-4.1875-3.8125-.277287-.321802-.320544-.719233-.46875-1.09375.545831.45705 1.204842.679551 1.84375.96875 1.87117.752018 4.169927.907361 6.375.4375 1.744446-.37171 3.416931-1.080467 4.65625-2.21875.683814-.628065 1.207749-1.380988 1.5625-2.25.142455-.348963.267778-.740368.34375-1.125.117207-.397518.091715-.811491.125-1.21875 0-.474802-.067806-.96509-.1875-1.46875-.035657-.257079-.146206-.501279-.21875-.75-.490711-1.513418-1.344322-2.868006-2.21875-4.1875-1.572509-2.278129-3.674942-4.627116-5.75-6.75-4.150118-4.2457664-8.28125-7.59375-8.28125-7.59375-.109803-.0894684-.19779-.125-.34375-.125z"/>
  <path fill="#1b1e20" d="M24 4.508759c-.085748-.02288-.266012.0742125-.34375.1478172 0 1e-7-4.131134 3.3473682-8.28125 7.5931348-2.075058 2.122884-4.17749 4.474782-5.7500001 6.752911-.5896916.854299-1.0823832 1.697862-1.5 2.520672-.2883586.517906-.4942003 1.072271-.71875 1.61821-.2662055.734095-.3248573 1.502434-.40625 2.271716-.026715.809062.2367913 1.570745.46875 2.333956.3547517.869013.8786871 1.612533 1.5625 2.240597C10.270569 31.126056 11.943054 31.85666 13.6875 32.22837c2.509261.53468 5.152579.272562 7.125-.777985.40882-.128252.74084-.419218 1.09375-.653508-.041564.419209-.299786.752938-.46875 1.120299-1.091046 1.559463-2.682664 2.663174-4.1875 3.796568-.696291.521854-1.266467.931379-1.5625 1.462612-.316274.443254.354491.541282.46875.715746h15.6875c.179054.001402.343655-.10372.4375-.248955.005663-.008764-.005032-.022106 0-.03112.07835-.140348.108305-.293221.03125-.435671-1.787948-1.900168-4.131543-3.162013-5.75-5.25918-.277287-.321803-.320544-.745782-.46875-1.120299.545831.457051 1.204842.706622 1.84375.995821 1.87117.752018 4.169927.905533 6.375.435672 1.744446-.371709 3.416931-1.102314 4.65625-2.240597.683814-.628064 1.207749-1.371585 1.5625-2.240597.142455-.348964.267778-.735667.34375-1.120299.300901-1.175495.071698-2.224843-.28125-3.454254-.489887-1.508354-1.345954-2.85576-2.21875-4.170001-1.572509-2.278128-3.674942-4.630027-5.75-6.752911-4.150118-4.2457664-8.28125-7.5931348-8.28125-7.5931348C24.237191 4.557589 24 4.508759 24 4.508759z"/>
  <path fill="url(#e)" d="M23.94355 4.3260894c-.10847.0151775-.208986.0633996-.286724.1375543 0 0-4.136208 3.3705218-8.286324 7.6480163-2.075058 2.138748-4.16197 4.500027-5.7344807 6.79518-1.5725103 2.295153-2.6378611 4.51266-2.6378611 6.465049 0 1.906247.7964211 3.475034 2.0357407 4.621823 1.2393191 1.14679 2.9004841 1.881402 4.6449291 2.25589 3.002535.644567 6.237636.163516 8.22898-1.485586-.078129.386027-.218092.770515-.458759 1.155455-1.084009 1.579559-2.676549 2.687066-4.18617 3.824009-.696292.525753-1.280949.950383-1.576983 1.485586-.082003.152731-.074765.335493.01908.481813.093846.14632.260625.23488.439679.233469h15.712477c.179054.001411.345833-.087149.439678-.233469.093846-.14632.101083-.329082.01908-.481813-.296033-.535203-.880691-.959834-1.576982-1.485586-.696291-.525752-1.499904-1.115422-2.26512-1.760695-.765215-.645272-1.474078-1.348389-1.921051-2.063314-.240666-.38494-.380629-.769428-.458758-1.155455 1.991344 1.649102 5.226445 2.130153 8.228979 1.485586 1.744446-.374488 3.40561-1.1091 4.64493-2.25589 1.239319-1.146789 2.035739-2.715576 2.03574-4.621823 0-1.952389-1.033287-4.192197-2.637861-6.465049-1.51001-2.138903-2.700018-3.555809-5.812605-6.76393-3.112587-3.2081213-8.2082-7.6792663-8.2082-7.6792663-.106558-.0997271-.25312-.14995-.401414-.1375543zm.057345 1.1829666c.500141.4120898 4.060222 3.3207852 7.884911 7.262865 2.050961 2.11391 4.097787 4.463698 5.619791 6.685136 1.522005 2.221437 2.494499 4.328296 2.494499 5.914832 0 1.645896-.679729 2.91709-1.749016 3.906541-1.069287.989452-2.561833 1.693254-4.157499 2.035803-3.191331.685098-6.7323-.051868-8.11429-1.925759-.114841-.159005-.316342-.238415-.51451-.202763-.198167.03565-.356001.179706-.403007.367828-.228082 1.030881.066708 2.032256.602121 2.888639.535412.856382 1.315156 1.603229 2.121758 2.283401.936398.745093 1.891447 1.465522 2.809895 2.228378H17.406243c.885975-.800731 1.876231-1.48212 2.809895-2.228378.806602-.680172 1.586346-1.427019 2.121758-2.283401.535412-.856383.830202-1.857758.60212-2.888639-.047006-.188122-.204839-.332178-.403006-.367828-.198168-.035652-.39967.043758-.514511.202763-1.381988 1.873891-4.922958 2.610857-8.11429 1.925759-1.595665-.342549-3.088211-1.04635-4.1574981-2.035803-1.0692865-.989452-1.7490165-2.260645-1.7490165-3.906541 0-1.586536.972495-3.693395 2.4944986-5.914832 1.522004-2.221438 3.56883-4.571226 5.619791-6.685136 3.824689-3.9420798 7.384771-6.8507752 7.884911-7.262865z" opacity=".4"/>
  <path fill="url(#f)" d="M15.152104 12.478529c-3.162219 3.096472-8.4007657 9.410453-8.1506283 12.703353 1.798688 2.236201 9.3203163-.412691 15.1186143-5.879693 5.798298-5.467002 9.543852-4.91446 12.823019-4.704859-4.887185-4.8731142-5.006153-4.9750377-10.743518-10.0822341-.076272-.0678948-.341975-.0720221-.419337-.0032452-5.293262 4.705857-5.481718 4.8856657-8.62815 7.9666783z" opacity=".35"/>
</svg>